<svg width="24" height="24" viewBox="0 0 24 24" fill="none" xmlns="http://www.w3.org/2000/svg">
<path d="M10.707 3.2218L3.63596 10.2929C3.21533 10.7135 3.02123 11.2749 3.05366 11.8254C3.05742 11.8893 3.06175 11.9515 3.0673 12.0122C3.0673 12.0286 16.0424 12.0286 16.0424 12.0286C16.3665 11.7044 16.9451 11.1258 17.7781 10.2929L10.707 3.2218ZM12.1212 1.80759L19.1923 8.87865C19.9734 9.6597 19.9734 10.926 19.1923 11.7071L12.1212 18.7781C10.5591 20.3402 8.02649 20.3402 6.46439 18.7781L2.22175 14.5355C0.659653 12.9734 0.659653 10.4407 2.22175 8.87865L9.29282 1.80759C10.0739 1.02654 11.3402 1.02654 12.1212 1.80759Z" fill="white"/>
<path opacity="0.3" fill-rule="evenodd" clip-rule="evenodd" d="M20 22C21.6569 22 23 20.6569 23 19C23 17.8954 22 16.2288 20 14C18 16.2288 17 17.8954 17 19C17 20.6569 18.3431 22 20 22Z" fill="white"/>
</svg>
